<svg width="391" height="501" viewBox="0 0 391 501" fill="none" xmlns="http://www.w3.org/2000/svg">
<path d="M168 484C170 476.5 168 421 168 421H196C193.266 451.461 194 500 170.5 500H161.5C161.5 500 137 500.218 137 499C137 497 166 491.5 168 484Z" fill="#FE733E"/>
<path d="M138 467C140 459.5 138 404 138 404H169C166.266 434.461 164 483 140.5 483H131.5C131.5 483 107 483.218 107 482C107 480 136 474.5 138 467Z" fill="#FE733E"/>
<path d="M107 452.5C109 445 107 389.5 107 389.5H139.5C136.766 419.961 133 468.5 109.5 468.5H100.5C100.5 468.5 75.9998 468.718 75.9998 467.5C75.9998 465.5 105 460 107 452.5Z" fill="#FE733E"/>
<path d="M222 484C220 476.5 222 421 222 421L194 420.5C196.734 450.961 196 500 219.5 500H228.5C228.5 500 253 500.218 253 499C253 497 224 491.5 222 484Z" fill="#FE733E"/>
<path d="M252 467C250 459.5 252 404 252 404H221C223.734 434.461 226 483 249.5 483H258.5C258.5 483 283 483.218 283 482C283 480 254 474.5 252 467Z" fill="#FE733E"/>
<path d="M283 452.5C281 445 283 389.5 283 389.5H250.5C253.234 419.961 257 468.5 280.5 468.5H289.5C289.5 468.5 314 468.718 314 467.5C314 465.5 285 460 283 452.5Z" fill="#FE733E"/>
<path fill-rule="evenodd" clip-rule="evenodd" d="M375.488 231.128C355.321 312.047 282.162 372 195 372C107.608 372 34.2923 311.729 14.3534 230.486C13.9323 230.023 13.482 229.681 13 229.5C11.3572 228.884 9.54581 228.858 7.84279 228.834C5.3991 228.799 3.17863 228.768 2 227C0.359717 224.54 0.338581 224.384 0.159422 223.069L0.159415 223.069C0.120125 222.781 0.073234 222.436 0 222V152C0 152 -1.71661e-05 148.5 2.5 146C3.65269 144.847 4.80537 144.757 6.15409 144.652C7.73055 144.53 9.57483 144.386 12 142.5C13.4762 141.352 14.4144 140.042 15.0968 138.589C36.06 58.8285 108.66 0 195 0C281.11 0 353.554 58.5158 374.735 137.952C375.444 139.749 376.439 141.346 378.198 142.714C380.623 144.601 382.467 144.744 384.043 144.867C385.392 144.972 386.545 145.062 387.698 146.214C390.198 148.714 390.198 152.214 390.198 152.214V222.214C390.124 222.651 390.077 222.995 390.038 223.283C389.859 224.599 389.838 224.754 388.198 227.214C387.019 228.982 384.798 229.014 382.355 229.048C380.652 229.073 378.84 229.098 377.198 229.714C376.577 229.947 376.009 230.448 375.488 231.128Z" fill="#B5D2F3"/>
<circle cx="194.5" cy="186.5" r="177.5" fill="#E2F5FC"/>
<circle cx="194.5" cy="186.5" r="147.5" fill="#CDECF6"/>
<path fill-rule="evenodd" clip-rule="evenodd" d="M283 178.411C283.258 175.497 283.39 172.544 283.39 169.558C283.39 117.887 243.904 76 195.195 76C146.551 76 107.105 117.776 107 169.351H107V169.558V390H283V178.411Z" fill="#FE733E"/>
<path d="M283.39 164.195C283.39 212.904 304.209 236 255.5 236C206.791 236 222.5 220.209 222.5 171.5C260.574 105 195.195 76 195.195 76C243.904 76 283.39 115.486 283.39 164.195Z" fill="#FE6B3C"/>
<circle cx="253.5" cy="211.5" r="52.5" fill="#FE6143"/>
<circle cx="254" cy="211" r="41" fill="#FEFEFE"/>
<circle cx="253.5" cy="204.5" r="12.5" fill="#090C0C"/>
<circle cx="136.5" cy="211.5" r="52.5" fill="#FE6143"/>
<circle cx="137" cy="211" r="41" fill="#FEFEFE"/>
<circle cx="136.5" cy="204.5" r="12.5" fill="#090C0C"/>
<circle cx="166.5" cy="126.5" r="11.5" fill="#FEA777"/>
<circle cx="127" cy="56" r="10" fill="#FBFDFE"/>
<path d="M44 152.963C54.4362 118.346 64.4573 101.38 89 75.0211L89.0029 75.0228C91.5 72 94.2839 71.377 97.0951 73C99.9063 74.623 101.5 78.5 99.3894 81.0194L99.3923 81.0211C76.5674 103.187 66.5827 120.043 54.3923 158.963C53.5 161.812 49.0659 162.816 46.1962 161.16C43.3264 159.503 43 156 44 152.963Z" fill="#FDFEFE"/>
<path fill-rule="evenodd" clip-rule="evenodd" d="M222.507 309C225.31 297.237 225.122 292.5 225.122 292.5C225.122 288.5 225.31 286.655 210.155 296.5C205.537 299.5 200.918 301 195 301C189.081 301 184.462 299.5 179.844 296.5C164.689 286.5 164.5 288.5 164.5 292.5C164.5 292.5 164.689 297.237 167.492 309C181.456 319.82 209.413 319.788 222.507 309Z" fill="white"/>
<path d="M195 339C178.396 339 170.888 323.248 167.492 309C167.492 309 188.235 327.284 195 339Z" fill="black"/>
<path d="M167.492 309C167.492 309 188.235 327.284 195 339C201.764 327.284 222.507 309 222.507 309C209.413 319.788 181.456 319.82 167.492 309Z" fill="black"/>
<path d="M195 339C211.603 339 219.111 323.248 222.507 309C222.507 309 201.764 327.284 195 339Z" fill="black"/>
<path d="M129.5 404H138H162H168V421H192L195 434L198 421H222V404H228H252H260.5V389H129.5V404Z" fill="#FE733E"/>
<path d="M283 380V358C284.975 362.284 286.775 364.457 291 368C294.933 370.603 301.5 374.158 310.5 374.158C319.5 374.158 319.5 377 319.5 377C319.5 377 300.5 381.5 293 381.5C285.5 381.5 283 380.5 283 380Z" fill="#FE6B3C"/>
<path d="M107.5 380V358C105.525 362.284 103.725 364.457 99.5 368C95.5665 370.603 89 374.158 80 374.158C71 374.158 71 377 71 377C71 377 90 381.5 97.5 381.5C105 381.5 107.5 380.5 107.5 380Z" fill="#FE6B3C"/>
</svg>
